<svg width="1194" height="834" viewBox="0 0 1194 834" fill="none" xmlns="http://www.w3.org/2000/svg">
<g clip-path="url(#clip0_167_1340)">
<path d="M1446.62 830.671L1433.94 790.361C1421.12 750.233 1395.76 669.613 1336.69 633.78C1277.49 597.849 1184.98 606.439 1126.88 569.058C1069.05 531.594 1045.9 448.074 1005.74 387.407C965.46 326.643 908.3 288.829 854.484 245.829C800.658 203.108 750.443 155.116 693.027 117.108C635.484 79.0017 570.867 50.976 507.661 20.302C444.446 -10.0933 382.632 -42.8585 351.725 -59.2411L320.818 -75.6237L610.791 -456.282L638.246 -435.368C665.701 -414.453 720.61 -372.625 775.265 -330.991C830.047 -289.26 884.446 -247.82 939.228 -206.089C993.882 -164.455 1048.79 -122.627 1103.45 -80.993C1158.23 -39.2619 1212.63 2.17752 1267.41 43.9087C1322.06 85.5426 1376.97 127.371 1431.63 169.005C1486.41 210.736 1540.81 252.175 1595.59 293.907C1650.25 335.541 1705.16 377.369 1732.61 398.283L1760.07 419.197L1446.62 830.671Z" fill="#FCA34D"/>
<path d="M1569.51 669.344L1532.39 661.118C1495.27 652.893 1421.03 636.442 1363.89 598.07C1306.48 559.783 1266.45 499.492 1208.63 461.749C1150.93 424.103 1075.86 408.739 1024.11 363.299C972.364 317.58 944.201 241.7 903.503 181.48C862.795 121.538 809.819 77.1719 750.055 42.2448C690.164 7.22045 623.89 -18.6301 564.689 -54.5608C505.616 -90.3941 454.021 -136.573 428.085 -159.481L402.287 -182.571L610.791 -456.282L638.246 -435.368C665.701 -414.453 720.61 -372.625 775.265 -330.991C830.047 -289.26 884.446 -247.82 939.228 -206.089C993.882 -164.455 1048.79 -122.627 1103.45 -80.9931C1158.23 -39.2619 1212.63 2.17744 1267.41 43.9086C1322.06 85.5425 1376.97 127.371 1431.63 169.005C1486.41 210.736 1540.81 252.175 1595.59 293.907C1650.25 335.54 1705.16 377.369 1732.61 398.283L1760.07 419.197L1569.51 669.344Z" fill="#FE9652"/>
<path d="M1617.84 605.901L1579.34 599.488C1540.84 593.075 1463.83 580.249 1410.56 536.803C1357.16 493.259 1327.62 419.192 1276.56 372.566C1225.5 326.219 1153.19 307.23 1093.01 272.847C1032.71 238.367 984.659 188.589 928.358 148.852C872.047 109.393 807.471 80.2533 748.398 44.4199C689.336 8.30798 635.765 -34.219 586.783 -83.5634C537.928 -132.81 493.512 -188.415 471.442 -216.399L449.235 -244.201L610.791 -456.282L638.246 -435.368C665.701 -414.453 720.611 -372.625 775.265 -330.991C830.047 -289.26 884.446 -247.821 939.228 -206.089C993.882 -164.455 1048.79 -122.627 1103.45 -80.9932C1158.23 -39.262 1212.63 2.17737 1267.41 43.9086C1322.06 85.5424 1376.97 127.371 1431.63 169.005C1486.41 210.736 1540.81 252.175 1595.59 293.906C1650.25 335.54 1705.16 377.369 1732.61 398.283L1760.07 419.197L1617.84 605.901Z" fill="#FF8A58"/>
<path d="M1633.03 585.962L1613.45 554.715C1593.72 523.65 1554.55 461.158 1504.46 413.542C1454.23 365.829 1393.48 332.728 1325.99 307.673C1258.64 282.716 1184.95 265.539 1132.36 221.187C1079.65 176.736 1048.18 105.207 998.089 57.3127C947.992 9.69705 879.274 -14.0048 822.272 -52.5571C765.281 -91.3881 719.995 -144.791 668.251 -190.51C616.634 -236.132 558.41 -273.61 529.437 -292.53L500.325 -311.269L610.791 -456.282L638.245 -435.368C665.7 -414.453 720.61 -372.625 775.264 -330.991C830.047 -289.26 884.446 -247.82 939.228 -206.089C993.882 -164.455 1048.79 -122.627 1103.45 -80.993C1158.23 -39.2619 1212.63 2.17749 1267.41 43.9087C1322.06 85.5426 1376.97 127.371 1431.63 169.005C1486.41 210.736 1540.81 252.175 1595.59 293.907C1650.25 335.54 1705.16 377.369 1732.61 398.283L1760.06 419.197L1633.03 585.962Z" fill="#FE7E60"/>
<path d="M1667.55 540.646L1643.55 515.2C1619.54 489.754 1571.54 438.862 1515.23 399.403C1458.93 359.666 1394.31 331.641 1337.46 292.628C1280.73 253.713 1231.9 203.909 1186.91 149.587C1141.79 95.167 1100.65 36.3262 1043.1 -1.77967C985.688 -39.7882 912 -56.9645 855.412 -96.0607C798.835 -135.435 759.625 -196.814 707.881 -242.533C656.126 -287.974 592.103 -317.838 559.953 -332.59L527.941 -347.522L610.791 -456.282L638.246 -435.367C665.701 -414.453 720.61 -372.625 775.265 -330.991C830.047 -289.26 884.446 -247.82 939.228 -206.089C993.882 -164.455 1048.79 -122.627 1103.45 -80.9928C1158.23 -39.2617 1212.63 2.17771 1267.41 43.9089C1322.06 85.5428 1376.97 127.371 1431.63 169.005C1486.41 210.736 1540.81 252.176 1595.59 293.907C1650.25 335.541 1705.16 377.369 1732.61 398.283L1760.07 419.198L1667.55 540.646Z" fill="#FA7268"/>
</g>
<defs>
<clipPath id="clip0_167_1340">
<rect width="1444.75" height="1367.21" fill="white" transform="translate(930.191 1508.6) rotate(-142.701)"/>
</clipPath>
</defs>
</svg>
