<svg width="707" height="541" viewBox="0 0 707 541" fill="none" xmlns="http://www.w3.org/2000/svg">
<g clip-path="url(#clip0_167_1346)">
<path d="M-251.539 365.66L-232.765 380.636C-213.971 395.515 -176.424 425.468 -133.906 431.328C-91.2907 437.209 -43.8445 419.17 -1.39716 425.833C40.9314 432.573 78.1424 464.09 117.783 483.344C157.521 502.619 199.591 509.61 241.387 519.304C283.107 528.879 324.434 541.233 366.7 548.266C409.063 555.32 452.267 557.031 495.491 560.076C538.639 563.003 581.73 567.145 603.276 569.216L624.821 571.287L580.72 776.604L559.699 772.088C538.679 767.573 496.638 758.543 454.792 749.555C412.849 740.545 371.199 731.599 329.256 722.59C287.41 713.602 245.369 704.571 203.523 695.583C161.58 686.574 119.93 677.628 77.9866 668.618C36.1411 659.63 -5.90002 650.6 -47.7456 641.611C-89.6889 632.602 -131.339 623.656 -173.282 614.647C-215.128 605.658 -257.169 596.628 -278.189 592.113L-299.21 587.598L-251.539 365.66Z" fill="#FCA34D"/>
<path d="M-270.229 452.675L-247.738 450.346C-225.248 448.017 -180.267 443.36 -138.043 450.588C-95.7008 457.74 -56.2348 476.854 -13.8295 483.713C28.4781 490.55 73.5853 485.306 114.99 496.347C156.471 507.508 194.131 535.03 233.932 554.012C273.657 572.875 315.404 583.274 358.026 588.645C400.747 594.037 444.203 594.575 486.818 600.455C529.336 606.315 570.873 617.692 591.662 623.282L612.431 628.971L580.72 776.603L559.699 772.088C538.679 767.573 496.638 758.543 454.792 749.555C412.849 740.545 371.199 731.599 329.256 722.59C287.41 713.601 245.369 704.571 203.523 695.583C161.58 686.574 119.93 677.627 77.9867 668.618C36.1411 659.63 -5.89995 650.6 -47.7455 641.611C-89.6888 632.602 -131.339 623.656 -173.282 614.646C-215.128 605.658 -257.169 596.628 -278.189 592.113L-299.21 587.598L-270.229 452.675Z" fill="#FE9652"/>
<path d="M-277.579 486.895L-254.879 483.588C-232.178 480.282 -186.777 473.669 -145.141 483.635C-103.408 493.622 -65.538 520.167 -24.1617 531.816C17.1378 543.346 61.825 540.057 104.511 545.135C147.294 550.233 187.978 563.677 230.152 571.611C272.25 579.426 315.761 581.612 358.279 587.472C400.873 593.45 442.397 602.983 483.458 616.099C524.422 629.193 564.867 645.654 585.068 653.982L605.291 662.213L580.72 776.604L559.7 772.088C538.679 767.573 496.638 758.543 454.792 749.555C412.849 740.545 371.199 731.599 329.256 722.59C287.41 713.602 245.369 704.571 203.523 695.583C161.58 686.574 119.93 677.628 77.9868 668.618C36.1412 659.63 -5.89989 650.6 -47.7454 641.611C-89.6888 632.602 -131.339 623.656 -173.282 614.647C-215.128 605.658 -257.169 596.628 -278.189 592.113L-299.21 587.598L-277.579 486.895Z" fill="#FF8A58"/>
<path d="M-279.889 497.649L-260.066 507.737C-240.221 517.728 -200.574 537.904 -159.422 550.118C-118.171 562.354 -75.5553 566.803 -31.6799 566.817C12.0977 566.811 56.9949 562.544 98.5254 572.999C140.154 583.475 178.318 608.651 219.547 620.984C260.7 633.199 304.841 632.452 347.043 639.779C389.323 647.224 429.587 662.623 471.068 673.783C512.451 684.922 554.997 691.606 576.248 695.046L597.521 698.387L580.72 776.603L559.7 772.088C538.679 767.573 496.638 758.543 454.792 749.555C412.849 740.545 371.199 731.599 329.256 722.59C287.41 713.602 245.369 704.571 203.524 695.583C161.58 686.574 119.93 677.627 77.9868 668.618C36.1413 659.63 -5.89984 650.6 -47.7454 641.611C-89.6887 632.602 -131.339 623.656 -173.282 614.647C-215.128 605.658 -257.169 596.628 -278.189 592.113L-299.21 587.598L-279.889 497.649Z" fill="#FE7E60"/>
<path d="M-285.14 522.092L-264.644 529.051C-244.148 536.011 -203.157 549.929 -161.06 557.744C-118.885 565.678 -75.6814 567.389 -33.423 574.932C8.73751 582.454 49.8546 595.786 90.2301 611.618C130.703 627.471 170.337 645.804 212.701 652.857C254.966 659.89 299.863 655.624 342.003 663.243C384.219 670.982 423.559 690.683 465.041 701.843C506.445 712.884 549.872 715.462 571.607 716.653L593.32 717.941L580.72 776.603L559.7 772.088C538.679 767.573 496.638 758.543 454.792 749.555C412.849 740.545 371.199 731.599 329.256 722.59C287.41 713.601 245.369 704.571 203.523 695.583C161.58 686.574 119.93 677.627 77.9867 668.618C36.1412 659.63 -5.89994 650.6 -47.7455 641.611C-89.6888 632.602 -131.339 623.656 -173.282 614.646C-215.128 605.658 -257.169 596.628 -278.189 592.113L-299.21 587.598L-285.14 522.092Z" fill="#FA7268"/>
</g>
<defs>
<clipPath id="clip0_167_1346">
<rect width="900" height="600" fill="white" transform="translate(-172.996) rotate(12.1227)"/>
</clipPath>
</defs>
</svg>
