<svg width="1194" height="834" viewBox="0 0 1194 834" fill="none" xmlns="http://www.w3.org/2000/svg">
<g clip-path="url(#clip0_167_1361)">
<path d="M249.411 -201.627L274.62 -176.303C299.826 -150.694 350.244 -100.046 419.499 -70.3124C488.898 -40.7364 577.276 -32.2324 634.455 10.7289C691.49 53.8476 717.469 131.266 774.505 174.385C831.684 217.346 920.062 225.85 992.48 252.119C1065.04 278.231 1121.5 322.265 1171.2 373.414C1220.9 424.564 1263.85 482.83 1306.8 541.381C1349.75 599.932 1392.98 658.453 1444.26 707.871C1495.69 757.131 1555.32 797.13 1584.99 817.001L1614.8 837L1922.45 500.008L1896.23 476.072C1870.15 452.264 1817.72 404.392 1765.14 356.391C1712.56 308.391 1659.84 260.263 1607.26 212.262C1554.68 164.262 1502.25 116.39 1449.67 68.3892C1397.09 20.3888 1344.37 -27.7395 1291.79 -75.7399C1239.21 -123.74 1186.77 -171.613 1134.2 -219.613C1081.62 -267.613 1028.9 -315.742 976.32 -363.742C923.741 -411.742 871.303 -459.615 818.725 -507.615C766.146 -555.615 713.427 -603.744 686.928 -627.936L660.568 -652L249.411 -201.627Z" fill="#6755AD"/>
<path d="M437.738 -407.917L443.252 -361.019C448.906 -313.993 459.934 -220.198 500.006 -158.497C540.221 -96.9543 609.335 -67.3488 661.77 -19.191C714.061 29.1243 749.528 96.1494 810.014 135.489C870.499 174.828 956.002 186.482 1010.02 232.907C1064.03 279.333 1086.56 360.531 1131.95 416.405C1177.34 472.279 1245.6 502.829 1291.71 557.915C1337.81 613.002 1361.78 692.625 1402.86 753.223C1443.94 813.821 1502.13 855.395 1531.08 876.054L1560.17 896.84L1922.45 500.008L1896.23 476.072C1870.15 452.264 1817.72 404.392 1765.14 356.391C1712.56 308.391 1659.84 260.263 1607.26 212.262C1554.68 164.262 1502.25 116.39 1449.67 68.3892C1397.09 20.3888 1344.37 -27.7395 1291.79 -75.7399C1239.21 -123.74 1186.77 -171.613 1134.2 -219.613C1081.62 -267.613 1028.9 -315.742 976.32 -363.742C923.741 -411.742 871.303 -459.615 818.725 -507.615C766.146 -555.615 713.427 -603.744 686.928 -627.936L660.568 -652L437.738 -407.917Z" fill="#57449D"/>
<path d="M350.044 -311.858L399.405 -312.99C448.906 -313.993 547.629 -316.256 611.421 -280.539C675.356 -244.979 704.218 -171.281 757.371 -123.911C810.381 -76.3826 887.539 -55.0247 930.054 3.99878C972.57 63.0222 980.442 159.711 1010.45 232.435C1040.6 305.001 1092.75 353.759 1160.27 385.382C1227.66 417.163 1310.29 431.966 1377.53 463.904C1444.63 496 1496.49 545.073 1554.53 587.089C1612.57 629.106 1677.08 663.75 1709.06 681.102L1741.31 698.424L1922.45 500.008L1896.23 476.072C1870.15 452.264 1817.72 404.392 1765.14 356.391C1712.56 308.391 1659.84 260.263 1607.26 212.262C1554.68 164.262 1502.25 116.39 1449.67 68.3892C1397.09 20.3888 1344.37 -27.7395 1291.79 -75.7399C1239.21 -123.74 1186.77 -171.613 1134.2 -219.613C1081.62 -267.613 1028.9 -315.742 976.32 -363.742C923.741 -411.742 871.303 -459.615 818.725 -507.615C766.146 -555.615 713.427 -603.744 686.928 -627.936L660.568 -652L350.044 -311.858Z" fill="#48338E"/>
<path d="M496.68 -472.481L519.014 -444.007C541.345 -415.248 586.013 -358.302 642.186 -314.238C698.358 -270.175 766.035 -238.994 820.339 -192.884C874.642 -146.773 915.285 -85.417 956.363 -24.8188C997.44 35.7794 1038.95 95.6197 1097.43 137.164C1156.04 178.55 1231.76 201.483 1296.56 236.098C1361.36 270.713 1415.23 317.011 1449.56 385.01C1484.02 452.852 1498.79 542.553 1550.65 591.341C1602.51 640.129 1691.46 648.003 1735.65 651.969L1780.13 655.907L1922.45 500.008L1896.23 476.072C1870.15 452.264 1817.72 404.392 1765.14 356.391C1712.56 308.391 1659.84 260.263 1607.26 212.262C1554.68 164.262 1502.25 116.39 1449.67 68.3892C1397.09 20.3888 1344.37 -27.7395 1291.79 -75.7399C1239.21 -123.74 1186.77 -171.613 1134.2 -219.613C1081.62 -267.613 1028.9 -315.742 976.32 -363.742C923.741 -411.742 871.303 -459.615 818.725 -507.615C766.146 -555.615 713.427 -603.744 686.928 -627.936L660.568 -652L496.68 -472.481Z" fill="#38237E"/>
<path d="M513.932 -491.378L552.223 -480.384C590.799 -469.419 667.382 -447.431 732.899 -413.604C798.416 -379.776 852.867 -334.108 888.625 -267.683C924.384 -201.259 941.737 -114.392 982.959 -53.9513C1024.32 6.33193 1089.7 40.0317 1151.34 78.1113C1213.12 116.033 1271.01 158.493 1322.01 208.225C1372.86 258.115 1416.67 315.436 1468.1 364.696C1519.39 414.114 1578.43 455.313 1628.56 505.991C1678.7 556.668 1720.21 616.508 1740.68 646.458L1761.44 676.378L1922.45 500.008L1896.23 476.072C1870.15 452.264 1817.72 404.392 1765.14 356.391C1712.56 308.391 1659.84 260.263 1607.26 212.262C1554.68 164.262 1502.25 116.39 1449.67 68.3892C1397.09 20.3888 1344.37 -27.7395 1291.79 -75.7399C1239.21 -123.74 1186.77 -171.613 1134.2 -219.613C1081.62 -267.613 1028.9 -315.742 976.32 -363.742C923.741 -411.742 871.303 -459.615 818.725 -507.615C766.146 -555.615 713.427 -603.744 686.928 -627.936L660.568 -652L513.932 -491.378Z" fill="#27126F"/>
<path d="M538.371 -518.148L578.675 -509.359C618.976 -500.284 699.585 -482.705 763.664 -447.303C827.743 -411.9 875.294 -358.674 922.841 -305.162C970.387 -251.65 1017.93 -197.853 1062.03 -140.561C1106.27 -83.4277 1147.21 -22.9575 1192.16 33.3889C1236.98 89.8928 1285.96 142.115 1343.71 184.447C1401.61 226.621 1468.43 258.746 1530.35 296.51C1592.27 334.275 1649.3 377.679 1700.73 426.939C1752.02 476.357 1797.84 531.473 1820.47 559.06L1843.38 586.618L1922.45 500.008L1896.23 476.072C1870.15 452.264 1817.72 404.392 1765.14 356.391C1712.56 308.391 1659.84 260.263 1607.26 212.262C1554.68 164.262 1502.25 116.39 1449.67 68.3892C1397.09 20.3888 1344.37 -27.7395 1291.79 -75.7399C1239.21 -123.74 1186.77 -171.613 1134.2 -219.613C1081.62 -267.613 1028.9 -315.742 976.32 -363.742C923.741 -411.742 871.303 -459.615 818.725 -507.615C766.146 -555.615 713.427 -603.744 686.928 -627.936L660.568 -652L538.371 -518.148Z" fill="#130160"/>
</g>
<defs>
<clipPath id="clip0_167_1361">
<rect width="1708.65" height="1279.35" fill="white" transform="translate(660.568 -652) rotate(42.3938)"/>
</clipPath>
</defs>
</svg>
