<svg width="1005" height="834" viewBox="0 0 1005 834" fill="none" xmlns="http://www.w3.org/2000/svg">
<g clip-path="url(#clip0_167_1368)">
<path d="M689.745 1110.85L673.306 1093.27C656.874 1075.49 623.995 1040.32 577.99 1018.83C531.884 997.446 472.552 989.849 434.958 959.71C397.464 929.467 381.608 876.786 344.115 846.543C306.521 816.404 247.188 808.807 198.979 789.586C150.671 770.467 113.586 739.621 81.199 704.126C48.8122 668.63 21.1236 628.487 -6.55669 588.151C-34.2369 547.815 -62.109 507.492 -95.5973 473.13C-129.186 438.871 -168.49 410.675 -188.051 396.666L-207.704 382.568L-422 602.981L-404.851 619.654C-387.794 636.238 -353.496 669.584 -319.107 703.019C-284.717 736.455 -250.236 769.979 -215.846 803.414C-181.457 836.849 -147.159 870.195 -112.769 903.631C-78.3799 937.066 -43.8987 970.59 -9.5092 1004.03C24.8804 1037.46 59.1782 1070.81 93.5677 1104.24C127.957 1137.68 162.438 1171.2 196.828 1204.64C231.218 1238.07 265.515 1271.42 299.905 1304.85C334.294 1338.29 368.776 1371.81 386.108 1388.66L403.349 1405.43L689.745 1110.85Z" fill="#6755AD"/>
<path d="M558.563 1245.78L555.843 1214.08C553.031 1182.3 547.59 1118.9 521.912 1076.51C496.135 1034.22 450.221 1012.82 415.931 979.279C381.742 945.638 359.277 899.754 319.38 871.984C279.483 844.213 222.153 834.557 186.762 802.151C151.372 769.746 137.919 714.592 108.537 676.007C79.1543 637.422 33.8412 615.406 3.9579 577.336C-25.9254 539.266 -40.3789 485.142 -66.7573 443.467C-93.1358 401.792 -131.439 372.566 -150.499 358.042L-169.651 343.429L-422 602.981L-404.851 619.654C-387.794 636.238 -353.496 669.584 -319.107 703.019C-284.717 736.455 -250.236 769.979 -215.846 803.414C-181.457 836.849 -147.159 870.195 -112.769 903.631C-78.3799 937.066 -43.8987 970.59 -9.5092 1004.03C24.8804 1037.46 59.1782 1070.81 93.5677 1104.24C127.957 1137.68 162.438 1171.2 196.828 1204.64C231.218 1238.07 265.515 1271.42 299.905 1304.85C334.294 1338.29 368.776 1371.81 386.108 1388.66L403.349 1405.43L558.563 1245.78Z" fill="#57449D"/>
<path d="M619.648 1182.95L586.385 1182.67C553.031 1182.3 486.505 1181.73 444.305 1156.33C402.004 1131.03 384.129 1080.8 349.339 1047.77C314.649 1014.65 263.144 998.631 235.765 957.986C208.385 917.341 205.13 852.066 186.462 802.46C167.694 752.958 133.614 719.021 88.8096 696.298C44.1057 673.471 -11.2212 661.755 -55.8249 638.825C-100.328 615.793 -134.209 581.65 -172.404 552.129C-210.598 522.608 -253.308 497.913 -274.471 485.552L-295.825 473.205L-422 602.981L-404.851 619.654C-387.794 636.238 -353.496 669.584 -319.107 703.019C-284.717 736.455 -250.236 769.979 -215.846 803.414C-181.457 836.849 -147.159 870.195 -112.769 903.631C-78.3799 937.066 -43.8987 970.59 -9.5092 1004.03C24.8804 1037.46 59.1782 1070.81 93.5677 1104.24C127.957 1137.68 162.438 1171.2 196.828 1204.64C231.218 1238.07 265.515 1271.42 299.905 1304.85C334.294 1338.29 368.776 1371.81 386.108 1388.66L403.349 1405.43L619.648 1182.95Z" fill="#48338E"/>
<path d="M517.507 1288.01L503.07 1268.36C488.642 1248.52 459.768 1209.23 422.875 1178.37C385.982 1147.51 341.07 1125.08 305.478 1092.88C269.887 1060.69 243.818 1018.51 217.439 976.834C191.061 935.16 164.373 893.986 125.878 864.773C87.2829 835.664 36.7795 818.619 -6.12181 793.939C-49.0232 769.258 -84.3224 736.942 -105.994 690.427C-127.766 644.014 -135.811 583.298 -169.7 549.348C-203.589 515.398 -263.322 508.213 -292.996 504.607L-322.863 501.014L-422 602.981L-404.851 619.654C-387.794 636.238 -353.496 669.584 -319.107 703.019C-284.717 736.455 -250.236 769.979 -215.846 803.414C-181.457 836.849 -147.159 870.195 -112.769 903.631C-78.3799 937.066 -43.8987 970.59 -9.5092 1004.03C24.8804 1037.46 59.1782 1070.81 93.5677 1104.24C127.957 1137.68 162.438 1171.2 196.828 1204.64C231.218 1238.07 265.515 1271.42 299.905 1304.85C334.294 1338.29 368.776 1371.81 386.108 1388.66L403.349 1405.43L517.507 1288.01Z" fill="#38237E"/>
<path d="M505.49 1300.37L479.938 1292.16C454.194 1283.96 403.09 1267.53 359.688 1243.36C316.286 1219.2 280.586 1187.29 257.913 1141.81C235.239 1096.32 225.392 1037.46 198.914 995.889C172.335 954.42 129.025 930.344 88.3262 903.397C47.5278 876.554 9.44165 846.737 -23.8463 812.169C-57.0343 777.498 -85.3238 737.972 -118.912 703.713C-152.4 669.351 -191.288 640.358 -223.975 605.172C-256.662 569.986 -283.349 528.812 -296.501 508.212L-309.845 487.625L-422 602.981L-404.851 619.654C-387.794 636.238 -353.496 669.584 -319.107 703.019C-284.717 736.455 -250.236 769.979 -215.846 803.414C-181.457 836.849 -147.159 870.195 -112.769 903.631C-78.3799 937.066 -43.8987 970.59 -9.5092 1004.03C24.8804 1037.46 59.1782 1070.81 93.5677 1104.24C127.957 1137.68 162.438 1171.2 196.828 1204.64C231.218 1238.07 265.515 1271.42 299.905 1304.85C334.294 1338.29 368.776 1371.81 386.108 1388.66L403.349 1405.43L505.49 1300.37Z" fill="#27126F"/>
<path d="M488.466 1317.88L461.512 1311.11C434.567 1304.14 380.659 1290.6 338.258 1265.4C295.857 1240.21 264.964 1203.36 234.08 1166.32C203.195 1129.28 172.319 1092.05 143.837 1052.54C115.256 1013.13 88.9691 971.542 59.8869 932.648C30.9048 893.651 -0.972775 857.449 -38.9673 827.722C-77.062 798.097 -121.374 775.051 -162.272 748.311C-203.171 721.57 -240.656 691.136 -274.245 656.877C-307.733 622.515 -337.424 584.431 -352.078 565.375L-366.924 546.333L-422 602.981L-404.851 619.654C-387.794 636.238 -353.496 669.584 -319.107 703.019C-284.717 736.455 -250.236 769.979 -215.846 803.414C-181.457 836.849 -147.159 870.195 -112.769 903.631C-78.3799 937.066 -43.8987 970.59 -9.5092 1004.03C24.8804 1037.46 59.1782 1070.81 93.5677 1104.24C127.957 1137.68 162.438 1171.2 196.828 1204.64C231.218 1238.07 265.515 1271.42 299.905 1304.85C334.294 1338.29 368.776 1371.81 386.108 1388.66L403.349 1405.43L488.466 1317.88Z" fill="#130160"/>
</g>
<defs>
<clipPath id="clip0_167_1368">
<rect width="1151.14" height="861.916" fill="white" transform="translate(403.349 1405.43) rotate(-135.806)"/>
</clipPath>
</defs>
</svg>
